<svg xmlns="http://www.w3.org/2000/svg" viewBox="0 0 1024 1024" width="1024" height="1024">
<circle cx="512.0" cy="512.0" r="510.0" fill="black"/>
<circle cx="512.0" cy="512.0" r="459.0" fill="white"/>
<circle cx="512.0" cy="512.0" r="434.52" fill="black"/>
<circle cx="512.0" cy="512.0" r="421.77" fill="white"/>
<clipPath id="swirl-clip"><circle cx="512.0" cy="512.0" r="421.77"/></clipPath>
<g clip-path="url(#swirl-clip)">
<path d="M 537.50 512.00 L 546.83 515.76 L 553.46 519.28 L 559.16 523.12 L 564.20 527.28 L 568.70 531.73 L 572.72 536.45 L 576.30 541.39 L 579.47 546.55 L 582.23 551.90 L 584.60 557.40 L 586.82 562.73 L 588.69 568.20 L 590.21 573.78 L 591.41 579.48 L 592.27 585.26 L 592.79 591.11 L 592.99 597.03 L 592.87 602.99 L 592.41 608.98 L 591.64 614.99 L 590.55 621.01 L 589.14 627.01 L 587.42 633.00 L 585.39 638.94 L 583.06 644.84 L 580.42 650.68 L 577.49 656.45 L 574.26 662.13 L 570.75 667.72 L 566.96 673.20 L 562.88 678.56 L 558.54 683.79 L 553.93 688.88 L 549.06 693.82 L 543.94 698.60 L 538.58 703.21 L 532.97 707.64 L 527.14 711.88 L 521.08 715.93 L 514.81 719.76 L 508.33 723.39 L 501.65 726.79 L 494.78 729.96 L 487.73 732.89 L 480.50 735.59 L 473.12 738.03 L 465.57 740.21 L 457.89 742.13 L 450.07 743.78 L 442.12 745.16 L 434.06 746.26 L 425.90 747.08 L 417.64 747.61 L 409.29 747.85 L 400.87 747.80 L 393.63 748.07 L 386.33 748.13 L 378.98 747.97 L 371.59 747.59 L 364.16 746.99 L 356.71 746.17 L 349.22 745.12 L 341.72 743.85 L 334.21 742.36 L 326.70 740.64 L 319.19 738.69 L 311.68 736.53 L 304.20 734.13 L 296.73 731.51 L 289.29 728.67 L 281.89 725.60 L 274.52 722.31 L 267.21 718.80 L 259.94 715.07 L 252.74 711.12 L 245.60 706.95 L 238.53 702.56 L 231.54 697.96 L 224.64 693.15 L 217.82 688.12 L 211.10 682.89 L 204.48 677.45 L 197.97 671.81 L 191.57 665.97 L 185.28 659.92 L 180.61 657.12 L 175.96 654.24 L 171.35 651.27 L 166.78 648.23 L 162.24 645.10 L 157.74 641.90 L 153.27 638.62 L 148.85 635.26 L 144.46 631.82 L 140.12 628.31 L 135.82 624.73 L 131.56 621.07 L 127.35 617.33 L 123.18 613.53 L 119.05 609.65 L 145.60 684.32 L 154.70 695.93 L 164.18 707.13 L 174.00 717.89 L 184.17 728.21 L 194.64 738.07 L 205.41 747.47 L 216.46 756.40 L 227.77 764.85 L 239.31 772.80 L 251.07 780.27 L 263.03 787.23 L 275.16 793.68 L 287.45 799.63 L 299.87 805.05 L 312.40 809.97 L 321.90 812.41 L 331.42 814.57 L 340.93 816.43 L 350.43 818.01 L 359.92 819.30 L 369.37 820.30 L 378.80 821.02 L 388.17 821.46 L 397.50 821.62 L 406.76 821.50 L 415.96 821.11 L 425.08 820.44 L 434.11 819.51 L 443.05 818.31 L 451.88 816.85 L 460.61 815.13 L 469.22 813.16 L 477.70 810.93 L 486.05 808.47 L 494.26 805.76 L 502.33 802.82 L 510.23 799.66 L 517.98 796.26 L 525.56 792.65 L 532.96 788.83 L 540.18 784.81 L 547.21 780.58 L 554.05 776.16 L 560.68 771.56 L 567.11 766.78 L 572.02 762.15 L 576.76 757.41 L 581.32 752.56 L 585.72 747.62 L 589.95 742.59 L 593.99 737.47 L 597.86 732.26 L 601.54 726.98 L 605.04 721.62 L 608.36 716.20 L 611.48 710.72 L 614.41 705.17 L 617.15 699.58 L 619.69 693.94 L 622.03 688.26 L 624.17 682.55 L 626.11 676.80 L 627.85 671.04 L 629.38 665.26 L 630.71 659.47 L 631.83 653.68 L 632.75 647.88 L 633.45 642.10 L 633.95 636.34 L 634.23 630.59 L 634.30 624.88 L 634.17 619.20 L 633.82 613.57 L 633.25 607.98 L 632.48 602.45 L 631.49 596.99 L 630.29 591.60 L 628.88 586.28 L 627.26 581.06 L 625.42 575.93 L 623.37 570.90 L 621.11 565.98 L 618.63 561.18 L 615.95 556.51 L 613.05 551.98 L 609.94 547.59 L 606.61 543.36 L 603.07 539.29 L 599.31 535.40 L 595.33 531.70 L 591.05 528.57 L 586.56 525.65 L 581.85 522.94 L 576.91 520.46 L 571.71 518.23 L 566.22 516.25 L 560.38 514.55 L 554.08 513.16 L 547.03 512.15 L 537.50 512.00 Z" fill="black"/>
<path d="M 519.88 536.25 L 519.19 546.28 L 517.89 553.68 L 515.99 560.29 L 513.59 566.37 L 510.75 572.02 L 507.51 577.31 L 503.92 582.24 L 499.99 586.84 L 495.76 591.12 L 491.25 595.08 L 486.87 598.83 L 482.25 602.30 L 477.41 605.48 L 472.36 608.37 L 467.13 610.98 L 461.73 613.29 L 456.16 615.30 L 450.45 617.03 L 444.61 618.45 L 438.66 619.57 L 432.60 620.39 L 426.45 620.91 L 420.23 621.12 L 413.95 621.03 L 407.62 620.63 L 401.25 619.93 L 394.86 618.92 L 388.46 617.61 L 382.06 616.00 L 375.67 614.08 L 369.32 611.86 L 363.00 609.35 L 356.73 606.54 L 350.53 603.43 L 344.40 600.04 L 338.36 596.36 L 332.42 592.40 L 326.58 588.16 L 320.86 583.65 L 315.27 578.87 L 309.82 573.83 L 304.52 568.53 L 299.39 562.97 L 294.42 557.17 L 289.62 551.14 L 285.02 544.86 L 280.61 538.37 L 276.41 531.65 L 272.42 524.72 L 268.66 517.59 L 265.12 510.27 L 261.82 502.76 L 258.76 495.06 L 255.95 487.20 L 253.40 479.18 L 250.90 472.37 L 248.59 465.45 L 246.47 458.41 L 244.55 451.27 L 242.83 444.02 L 241.30 436.67 L 239.99 429.23 L 238.88 421.70 L 237.98 414.10 L 237.29 406.42 L 236.82 398.68 L 236.56 390.87 L 236.53 383.01 L 236.71 375.10 L 237.11 367.15 L 237.74 359.16 L 238.60 351.14 L 239.67 343.09 L 240.98 335.03 L 242.51 326.96 L 244.27 318.88 L 246.26 310.80 L 248.47 302.74 L 250.92 294.68 L 253.59 286.64 L 256.49 278.64 L 259.62 270.66 L 262.97 262.72 L 266.55 254.83 L 270.36 246.98 L 271.58 241.67 L 272.88 236.36 L 274.28 231.06 L 275.76 225.77 L 277.33 220.49 L 278.98 215.22 L 280.73 209.96 L 282.55 204.71 L 284.47 199.48 L 286.46 194.26 L 288.54 189.06 L 290.71 183.88 L 292.96 178.72 L 295.29 173.58 L 297.70 168.46 L 234.89 216.78 L 226.66 229.03 L 218.94 241.50 L 211.74 254.17 L 205.07 267.02 L 198.93 280.03 L 193.31 293.18 L 188.24 306.45 L 183.70 319.82 L 179.70 333.25 L 176.23 346.74 L 173.31 360.27 L 170.92 373.80 L 169.06 387.32 L 167.74 400.81 L 166.94 414.25 L 167.55 424.04 L 168.44 433.75 L 169.61 443.38 L 171.04 452.90 L 172.75 462.32 L 174.71 471.63 L 176.94 480.81 L 179.42 489.86 L 182.15 498.78 L 185.13 507.56 L 188.34 516.18 L 191.80 524.65 L 195.47 532.95 L 199.38 541.08 L 203.50 549.03 L 207.83 556.80 L 212.36 564.38 L 217.10 571.76 L 222.02 578.94 L 227.13 585.91 L 232.42 592.67 L 237.88 599.21 L 243.50 605.53 L 249.27 611.62 L 255.19 617.48 L 261.25 623.10 L 267.44 628.48 L 273.76 633.62 L 280.19 638.51 L 286.72 643.15 L 292.64 646.38 L 298.62 649.42 L 304.63 652.27 L 310.69 654.93 L 316.78 657.39 L 322.90 659.65 L 329.05 661.72 L 335.21 663.59 L 341.39 665.27 L 347.57 666.74 L 353.75 668.02 L 359.93 669.09 L 366.09 669.96 L 372.24 670.64 L 378.37 671.11 L 384.46 671.38 L 390.52 671.45 L 396.54 671.33 L 402.51 671.00 L 408.43 670.47 L 414.29 669.75 L 420.08 668.83 L 425.80 667.71 L 431.43 666.40 L 436.98 664.90 L 442.44 663.20 L 447.80 661.31 L 453.05 659.24 L 458.19 656.98 L 463.21 654.53 L 468.10 651.91 L 472.86 649.10 L 477.47 646.12 L 481.94 642.95 L 486.25 639.62 L 490.40 636.12 L 494.38 632.45 L 498.18 628.61 L 501.79 624.62 L 505.20 620.46 L 508.41 616.14 L 511.41 611.67 L 514.18 607.05 L 516.72 602.27 L 519.01 597.34 L 520.67 592.30 L 522.06 587.13 L 523.18 581.81 L 524.01 576.35 L 524.53 570.71 L 524.72 564.88 L 524.53 558.80 L 523.90 552.38 L 522.68 545.36 L 519.88 536.25 Z" fill="black"/>
<path d="M 491.37 526.99 L 481.61 529.43 L 474.18 530.48 L 467.31 530.72 L 460.79 530.32 L 454.53 529.36 L 448.50 527.91 L 442.70 526.02 L 437.11 523.70 L 431.73 521.00 L 426.58 517.94 L 421.65 514.93 L 416.93 511.61 L 412.41 507.99 L 408.10 504.09 L 404.00 499.91 L 400.13 495.49 L 396.50 490.82 L 393.10 485.92 L 389.94 480.81 L 387.03 475.49 L 384.38 469.98 L 381.99 464.29 L 379.86 458.44 L 378.01 452.44 L 376.43 446.29 L 375.13 440.02 L 374.11 433.63 L 373.38 427.14 L 372.94 420.55 L 372.79 413.89 L 372.93 407.16 L 373.37 400.38 L 374.11 393.55 L 375.14 386.69 L 376.48 379.81 L 378.11 372.93 L 380.04 366.05 L 382.27 359.19 L 384.79 352.36 L 387.61 345.57 L 390.72 338.82 L 394.13 332.15 L 397.82 325.54 L 401.80 319.02 L 406.06 312.60 L 410.60 306.29 L 415.42 300.09 L 420.51 294.02 L 425.87 288.08 L 431.48 282.30 L 437.36 276.67 L 443.48 271.21 L 449.85 265.92 L 456.46 260.82 L 463.31 255.92 L 469.00 251.44 L 474.87 247.10 L 480.91 242.91 L 487.11 238.87 L 493.48 234.99 L 499.99 231.27 L 506.66 227.72 L 513.48 224.34 L 520.43 221.14 L 527.52 218.11 L 534.74 215.27 L 542.09 212.61 L 549.55 210.15 L 557.13 207.88 L 564.82 205.81 L 572.61 203.93 L 580.50 202.27 L 588.49 200.81 L 596.56 199.56 L 604.71 198.52 L 612.93 197.70 L 621.23 197.09 L 629.59 196.71 L 638.00 196.54 L 646.47 196.60 L 654.99 196.88 L 663.54 197.39 L 672.12 198.13 L 680.74 199.09 L 689.37 200.29 L 694.80 199.81 L 700.25 199.41 L 705.73 199.10 L 711.22 198.87 L 716.73 198.73 L 722.25 198.68 L 727.79 198.71 L 733.35 198.83 L 738.91 199.03 L 744.49 199.31 L 750.08 199.69 L 755.68 200.15 L 761.28 200.69 L 766.89 201.32 L 772.50 202.03 L 707.14 157.23 L 692.95 153.18 L 678.70 149.70 L 664.43 146.76 L 650.14 144.39 L 635.87 142.57 L 621.63 141.29 L 607.44 140.57 L 593.33 140.38 L 579.31 140.73 L 565.41 141.60 L 551.65 143.00 L 538.04 144.90 L 524.60 147.32 L 511.37 150.23 L 498.34 153.62 L 489.21 157.23 L 480.25 161.08 L 471.46 165.16 L 462.84 169.47 L 454.41 174.00 L 446.17 178.75 L 438.13 183.70 L 430.28 188.86 L 422.64 194.21 L 415.22 199.75 L 408.01 205.48 L 401.02 211.37 L 394.27 217.44 L 387.74 223.66 L 381.45 230.04 L 375.40 236.56 L 369.60 243.21 L 364.04 250.00 L 358.73 256.90 L 353.68 263.92 L 348.88 271.03 L 344.35 278.24 L 340.08 285.54 L 336.07 292.91 L 332.33 300.36 L 328.85 307.86 L 325.65 315.41 L 322.71 323.00 L 320.05 330.63 L 317.66 338.27 L 316.41 344.90 L 315.37 351.52 L 314.52 358.13 L 313.86 364.71 L 313.40 371.26 L 313.14 377.79 L 313.07 384.27 L 313.19 390.71 L 313.51 397.10 L 314.02 403.43 L 314.72 409.71 L 315.61 415.91 L 316.68 422.05 L 317.94 428.10 L 319.38 434.08 L 321.01 439.96 L 322.81 445.74 L 324.79 451.43 L 326.95 457.01 L 329.28 462.47 L 331.78 467.82 L 334.44 473.04 L 337.27 478.13 L 340.26 483.09 L 343.41 487.90 L 346.70 492.57 L 350.15 497.08 L 353.75 501.43 L 357.49 505.62 L 361.36 509.64 L 365.37 513.48 L 369.51 517.14 L 373.78 520.61 L 378.17 523.88 L 382.67 526.95 L 387.28 529.81 L 392.00 532.46 L 396.82 534.89 L 401.74 537.09 L 406.75 539.05 L 411.85 540.77 L 417.02 542.24 L 422.28 543.45 L 427.61 544.39 L 433.00 545.04 L 438.30 545.06 L 443.66 544.78 L 449.06 544.21 L 454.51 543.31 L 460.03 542.06 L 465.63 540.43 L 471.36 538.38 L 477.28 535.79 L 483.57 532.47 L 491.37 526.99 Z" fill="black"/>
<path d="M 491.37 497.01 L 486.03 488.49 L 482.74 481.74 L 480.39 475.28 L 478.75 468.95 L 477.73 462.71 L 477.24 456.53 L 477.25 450.42 L 477.73 444.39 L 478.63 438.44 L 479.95 432.59 L 481.29 426.98 L 482.99 421.46 L 485.04 416.04 L 487.42 410.74 L 490.12 405.55 L 493.14 400.51 L 496.45 395.60 L 500.06 390.86 L 503.95 386.27 L 508.11 381.86 L 512.53 377.64 L 517.19 373.61 L 522.10 369.78 L 527.24 366.16 L 532.60 362.76 L 538.16 359.58 L 543.92 356.64 L 549.87 353.94 L 556.00 351.49 L 562.29 349.29 L 568.73 347.34 L 575.32 345.66 L 582.04 344.26 L 588.89 343.12 L 595.84 342.26 L 602.89 341.69 L 610.03 341.40 L 617.24 341.39 L 624.52 341.68 L 631.85 342.27 L 639.22 343.14 L 646.63 344.32 L 654.05 345.79 L 661.48 347.56 L 668.90 349.63 L 676.31 352.00 L 683.70 354.66 L 691.04 357.63 L 698.34 360.89 L 705.58 364.44 L 712.75 368.29 L 719.84 372.43 L 726.83 376.85 L 733.72 381.56 L 740.50 386.55 L 746.52 390.59 L 752.46 394.83 L 758.31 399.28 L 764.07 403.93 L 769.73 408.78 L 775.28 413.83 L 780.71 419.08 L 786.03 424.51 L 791.23 430.14 L 796.30 435.94 L 801.24 441.93 L 806.03 448.10 L 810.68 454.44 L 815.18 460.94 L 819.53 467.62 L 823.72 474.45 L 827.74 481.44 L 831.60 488.58 L 835.28 495.87 L 838.79 503.30 L 842.11 510.87 L 845.25 518.57 L 848.20 526.40 L 850.96 534.35 L 853.52 542.43 L 855.88 550.61 L 858.04 558.90 L 859.99 567.30 L 861.74 575.79 L 863.27 584.37 L 865.40 589.38 L 867.46 594.44 L 869.45 599.55 L 871.36 604.70 L 873.20 609.90 L 874.96 615.14 L 876.64 620.42 L 878.25 625.74 L 879.77 631.09 L 881.22 636.49 L 882.60 641.92 L 883.89 647.38 L 885.11 652.88 L 886.24 658.41 L 887.30 663.97 L 909.71 587.96 L 909.17 573.21 L 908.09 558.59 L 906.46 544.10 L 904.31 529.78 L 901.63 515.64 L 898.44 501.71 L 894.75 487.99 L 890.57 474.51 L 885.90 461.29 L 880.78 448.34 L 875.19 435.68 L 869.17 423.33 L 862.73 411.29 L 855.87 399.60 L 848.62 388.26 L 842.37 380.70 L 835.94 373.36 L 829.34 366.26 L 822.58 359.40 L 815.66 352.78 L 808.60 346.41 L 801.40 340.29 L 794.07 334.42 L 786.62 328.81 L 779.06 323.47 L 771.39 318.38 L 763.62 313.56 L 755.76 309.00 L 747.83 304.72 L 739.82 300.71 L 731.75 296.97 L 723.62 293.51 L 715.46 290.32 L 707.25 287.40 L 699.02 284.76 L 690.77 282.40 L 682.51 280.32 L 674.25 278.51 L 666.00 276.98 L 657.76 275.72 L 649.55 274.73 L 641.38 274.02 L 633.25 273.57 L 625.18 273.40 L 617.17 273.48 L 610.48 274.35 L 603.86 275.40 L 597.31 276.63 L 590.85 278.04 L 584.48 279.63 L 578.19 281.40 L 572.01 283.34 L 565.92 285.44 L 559.94 287.72 L 554.07 290.16 L 548.32 292.76 L 542.69 295.53 L 537.19 298.44 L 531.82 301.51 L 526.59 304.73 L 521.50 308.09 L 516.55 311.60 L 511.76 315.24 L 507.12 319.01 L 502.64 322.92 L 498.33 326.95 L 494.18 331.09 L 490.22 335.36 L 486.43 339.73 L 482.82 344.21 L 479.40 348.79 L 476.18 353.46 L 473.15 358.23 L 470.32 363.08 L 467.70 368.01 L 465.28 373.01 L 463.08 378.07 L 461.10 383.20 L 459.35 388.39 L 457.82 393.62 L 456.52 398.89 L 455.46 404.20 L 454.64 409.53 L 454.07 414.89 L 453.75 420.26 L 453.69 425.64 L 453.89 431.02 L 454.37 436.39 L 455.12 441.74 L 456.16 447.08 L 457.79 452.13 L 459.70 457.13 L 461.92 462.09 L 464.46 467.00 L 467.35 471.86 L 470.63 476.69 L 474.36 481.50 L 478.64 486.33 L 483.75 491.29 L 491.37 497.01 Z" fill="black"/>
<path d="M 519.88 487.75 L 526.34 480.04 L 531.73 474.82 L 537.15 470.59 L 542.67 467.08 L 548.29 464.17 L 554.01 461.80 L 559.83 459.93 L 565.71 458.51 L 571.64 457.54 L 577.62 456.98 L 583.37 456.52 L 589.14 456.43 L 594.93 456.71 L 600.71 457.33 L 606.48 458.30 L 612.21 459.61 L 617.90 461.25 L 623.53 463.21 L 629.09 465.49 L 634.56 468.08 L 639.95 470.98 L 645.22 474.17 L 650.38 477.66 L 655.41 481.43 L 660.30 485.47 L 665.04 489.78 L 669.62 494.35 L 674.03 499.18 L 678.25 504.24 L 682.29 509.55 L 686.13 515.08 L 689.76 520.82 L 693.18 526.78 L 696.37 532.94 L 699.34 539.28 L 702.06 545.81 L 704.55 552.51 L 706.78 559.37 L 708.75 566.38 L 710.46 573.53 L 711.91 580.82 L 713.08 588.22 L 713.97 595.73 L 714.58 603.35 L 714.91 611.05 L 714.95 618.83 L 714.69 626.67 L 714.15 634.58 L 713.30 642.53 L 712.16 650.51 L 710.71 658.51 L 708.97 666.53 L 706.92 674.55 L 704.57 682.56 L 701.92 690.55 L 699.94 697.53 L 697.74 704.49 L 695.32 711.42 L 692.67 718.34 L 689.81 725.22 L 686.72 732.06 L 683.41 738.85 L 679.89 745.59 L 676.14 752.27 L 672.19 758.88 L 668.02 765.43 L 663.64 771.89 L 659.04 778.28 L 654.25 784.57 L 649.24 790.76 L 644.04 796.86 L 638.64 802.84 L 633.03 808.72 L 627.24 814.47 L 621.26 820.10 L 615.09 825.60 L 608.73 830.97 L 602.19 836.20 L 595.48 841.28 L 588.60 846.21 L 581.54 850.98 L 574.33 855.60 L 566.95 860.05 L 559.41 864.33 L 551.72 868.44 L 547.61 872.02 L 543.44 875.54 L 539.19 879.01 L 534.88 882.42 L 530.51 885.77 L 526.07 889.06 L 521.57 892.30 L 517.01 895.47 L 512.38 898.58 L 507.70 901.62 L 502.96 904.61 L 498.17 907.52 L 493.31 910.38 L 488.41 913.17 L 483.44 915.89 L 562.66 913.72 L 576.52 908.65 L 590.09 903.10 L 603.36 897.08 L 616.32 890.60 L 628.94 883.69 L 641.21 876.34 L 653.11 868.59 L 664.64 860.45 L 675.77 851.93 L 686.51 843.05 L 696.82 833.83 L 706.71 824.29 L 716.16 814.44 L 725.16 804.31 L 733.70 793.91 L 738.97 785.62 L 743.95 777.24 L 748.67 768.77 L 753.10 760.22 L 757.26 751.60 L 761.14 742.92 L 764.74 734.18 L 768.05 725.39 L 771.08 716.57 L 773.83 707.73 L 776.30 698.86 L 778.48 689.98 L 780.39 681.10 L 782.01 672.23 L 783.35 663.38 L 784.41 654.55 L 785.20 645.75 L 785.71 636.99 L 785.94 628.29 L 785.91 619.65 L 785.60 611.07 L 785.03 602.57 L 784.20 594.15 L 783.11 585.83 L 781.76 577.61 L 780.16 569.50 L 778.32 561.51 L 776.23 553.64 L 773.90 545.91 L 771.34 538.31 L 768.45 532.22 L 765.41 526.25 L 762.21 520.41 L 758.87 514.70 L 755.39 509.12 L 751.77 503.69 L 748.02 498.41 L 744.13 493.27 L 740.12 488.29 L 735.98 483.46 L 731.73 478.80 L 727.36 474.30 L 722.89 469.97 L 718.31 465.81 L 713.63 461.82 L 708.86 458.02 L 704.00 454.40 L 699.06 450.97 L 694.03 447.72 L 688.94 444.67 L 683.77 441.81 L 678.55 439.15 L 673.27 436.70 L 667.94 434.44 L 662.56 432.40 L 657.15 430.56 L 651.71 428.94 L 646.24 427.53 L 640.75 426.34 L 635.25 425.37 L 629.75 424.62 L 624.25 424.09 L 618.77 423.79 L 613.29 423.72 L 607.85 423.89 L 602.43 424.28 L 597.05 424.91 L 591.73 425.78 L 586.46 426.89 L 581.25 428.25 L 576.11 429.85 L 571.06 431.71 L 566.10 433.82 L 561.24 436.19 L 556.49 438.83 L 552.19 441.94 L 548.02 445.31 L 543.99 448.95 L 540.11 452.88 L 536.37 457.13 L 532.80 461.74 L 529.38 466.77 L 526.11 472.34 L 522.96 478.73 L 519.88 487.75 Z" fill="black"/>
</g>
<circle cx="512.0" cy="512.0" r="20.400000000000002" fill="black"/>
</svg>